<mxfile host="app.diagrams.net" modified="2024-04-25T18:15:58.598Z" agent="Mozilla/5.0 (Windows NT 10.0; Win64; x64) AppleWebKit/537.36 (KHTML, like Gecko) Chrome/124.0.0.0 Safari/537.36" etag="gtCGcSez5RilBltxg_hI" version="24.3.0" type="device">
  <diagram name="Page-1" id="Fcc1T9phfIbI1bTRVX9n">
    <mxGraphModel dx="1195" dy="682" grid="1" gridSize="10" guides="1" tooltips="1" connect="1" arrows="1" fold="1" page="1" pageScale="1" pageWidth="850" pageHeight="1100" math="0" shadow="0">
      <root>
        <mxCell id="0" />
        <mxCell id="1" parent="0" />
        <mxCell id="rWLaTV12xomInbaRfFif-10" value="&lt;i data-sider-select-id=&quot;875af68b-1a76-420d-96b5-91dd6cced167&quot;&gt;User&lt;/i&gt;" style="shape=umlActor;verticalLabelPosition=bottom;verticalAlign=top;html=1;" vertex="1" parent="1">
          <mxGeometry x="90" y="425" width="30" height="60" as="geometry" />
        </mxCell>
        <mxCell id="rWLaTV12xomInbaRfFif-11" value="&lt;i data-sider-select-id=&quot;42cf9fa2-a383-4419-97d2-a9e3e5a75506&quot;&gt;Admin&lt;/i&gt;" style="shape=umlActor;verticalLabelPosition=bottom;verticalAlign=top;html=1;" vertex="1" parent="1">
          <mxGeometry x="90" y="230" width="30" height="60" as="geometry" />
        </mxCell>
        <mxCell id="rWLaTV12xomInbaRfFif-28" value="" style="endArrow=classic;html=1;rounded=0;exitX=1;exitY=0.3333333333333333;exitDx=0;exitDy=0;exitPerimeter=0;entryX=0.021;entryY=0.643;entryDx=0;entryDy=0;entryPerimeter=0;" edge="1" parent="1" source="rWLaTV12xomInbaRfFif-10" target="rWLaTV12xomInbaRfFif-18">
          <mxGeometry width="50" height="50" relative="1" as="geometry">
            <mxPoint x="340" y="540" as="sourcePoint" />
            <mxPoint x="320" y="480" as="targetPoint" />
          </mxGeometry>
        </mxCell>
        <mxCell id="rWLaTV12xomInbaRfFif-30" value="" style="endArrow=classic;html=1;rounded=0;exitX=1;exitY=0.3333333333333333;exitDx=0;exitDy=0;exitPerimeter=0;entryX=-0.007;entryY=0.36;entryDx=0;entryDy=0;entryPerimeter=0;" edge="1" parent="1" source="rWLaTV12xomInbaRfFif-11" target="rWLaTV12xomInbaRfFif-18">
          <mxGeometry width="50" height="50" relative="1" as="geometry">
            <mxPoint x="330" y="550" as="sourcePoint" />
            <mxPoint x="270" y="250" as="targetPoint" />
          </mxGeometry>
        </mxCell>
        <mxCell id="rWLaTV12xomInbaRfFif-37" value="" style="swimlane;startSize=0;" vertex="1" parent="1">
          <mxGeometry x="200" y="50" width="320" height="550" as="geometry" />
        </mxCell>
        <mxCell id="rWLaTV12xomInbaRfFif-58" value="&lt;a name=&quot;_Hlk164982327&quot;&gt;&lt;span data-sider-select-id=&quot;b497a8ee-940e-438e-814c-84d27de13650&quot; style=&quot;line-height: 107%; font-family: &amp;quot;Times New Roman&amp;quot;, serif;&quot; lang=&quot;EN-US&quot;&gt;&lt;font data-sider-select-id=&quot;41bdfc3f-b957-439e-b9e5-12259365b38b&quot; style=&quot;font-size: 10px;&quot;&gt;SISTEM APLIKASI CLOUD STORAGE PADA&lt;/font&gt;&lt;/span&gt;&lt;/a&gt;&lt;div&gt;&lt;a name=&quot;_Hlk164982327&quot;&gt;&lt;span data-sider-select-id=&quot;b497a8ee-940e-438e-814c-84d27de13650&quot; style=&quot;line-height: 107%; font-family: &amp;quot;Times New Roman&amp;quot;, serif;&quot; lang=&quot;EN-US&quot;&gt;&lt;font data-sider-select-id=&quot;41bdfc3f-b957-439e-b9e5-12259365b38b&quot; style=&quot;font-size: 10px;&quot;&gt;UNIVERSITAS INDO GLOBAL&lt;br&gt;MANDIRI BERBASIS WEB&lt;/font&gt;&lt;/span&gt;&lt;/a&gt;&lt;/div&gt;" style="text;html=1;align=center;verticalAlign=middle;resizable=0;points=[];autosize=1;strokeColor=none;fillColor=none;" vertex="1" parent="rWLaTV12xomInbaRfFif-37">
          <mxGeometry x="50" y="10" width="220" height="60" as="geometry" />
        </mxCell>
        <mxCell id="rWLaTV12xomInbaRfFif-46" value="&lt;font data-sider-select-id=&quot;2383cc40-95ec-4c2f-be98-fb768a32d19f&quot; face=&quot;Times New Roman&quot;&gt;Tambah User&lt;/font&gt;" style="strokeWidth=2;html=1;shape=mxgraph.flowchart.start_1;whiteSpace=wrap;" vertex="1" parent="rWLaTV12xomInbaRfFif-37">
          <mxGeometry x="50" y="100" width="100" height="40" as="geometry" />
        </mxCell>
        <mxCell id="rWLaTV12xomInbaRfFif-42" value="&lt;font data-sider-select-id=&quot;a2499c81-ecbc-428b-a66f-d0fd2b211790&quot; face=&quot;Times New Roman&quot;&gt;Kelola User&lt;/font&gt;" style="strokeWidth=2;html=1;shape=mxgraph.flowchart.start_1;whiteSpace=wrap;" vertex="1" parent="rWLaTV12xomInbaRfFif-37">
          <mxGeometry x="50" y="170" width="100" height="40" as="geometry" />
        </mxCell>
        <mxCell id="rWLaTV12xomInbaRfFif-52" value="" style="endArrow=block;html=1;rounded=0;exitX=0.5;exitY=1;exitDx=0;exitDy=0;exitPerimeter=0;entryX=0.5;entryY=0;entryDx=0;entryDy=0;entryPerimeter=0;endFill=0;endSize=12;" edge="1" parent="rWLaTV12xomInbaRfFif-37" source="rWLaTV12xomInbaRfFif-46" target="rWLaTV12xomInbaRfFif-42">
          <mxGeometry width="50" height="50" relative="1" as="geometry">
            <mxPoint x="200" y="145" as="sourcePoint" />
            <mxPoint x="153" y="187" as="targetPoint" />
          </mxGeometry>
        </mxCell>
        <mxCell id="rWLaTV12xomInbaRfFif-18" value="&lt;font data-sider-select-id=&quot;e4a3e0ee-0ef8-4b8d-976e-70de09336564&quot; face=&quot;Times New Roman&quot;&gt;&lt;i data-sider-select-id=&quot;9661b658-2831-483a-a566-1d33a366ef66&quot;&gt;Login&lt;/i&gt;&lt;/font&gt;" style="strokeWidth=2;html=1;shape=mxgraph.flowchart.start_1;whiteSpace=wrap;" vertex="1" parent="rWLaTV12xomInbaRfFif-37">
          <mxGeometry x="50" y="275" width="100" height="40" as="geometry" />
        </mxCell>
        <mxCell id="rWLaTV12xomInbaRfFif-13" value="&lt;font data-sider-select-id=&quot;a2499c81-ecbc-428b-a66f-d0fd2b211790&quot; face=&quot;Times New Roman&quot;&gt;Kelola Data&lt;/font&gt;" style="strokeWidth=2;html=1;shape=mxgraph.flowchart.start_1;whiteSpace=wrap;" vertex="1" parent="rWLaTV12xomInbaRfFif-37">
          <mxGeometry x="50" y="400" width="100" height="40" as="geometry" />
        </mxCell>
        <mxCell id="rWLaTV12xomInbaRfFif-25" value="&lt;font data-sider-select-id=&quot;2383cc40-95ec-4c2f-be98-fb768a32d19f&quot; face=&quot;Times New Roman&quot;&gt;Tambah Data&lt;/font&gt;" style="strokeWidth=2;html=1;shape=mxgraph.flowchart.start_1;whiteSpace=wrap;" vertex="1" parent="rWLaTV12xomInbaRfFif-37">
          <mxGeometry x="50" y="480" width="100" height="40" as="geometry" />
        </mxCell>
        <mxCell id="rWLaTV12xomInbaRfFif-56" value="" style="endArrow=block;html=1;rounded=0;exitX=0.5;exitY=0;exitDx=0;exitDy=0;exitPerimeter=0;entryX=0.5;entryY=1;entryDx=0;entryDy=0;entryPerimeter=0;endFill=0;endSize=12;" edge="1" parent="rWLaTV12xomInbaRfFif-37" source="rWLaTV12xomInbaRfFif-25" target="rWLaTV12xomInbaRfFif-13">
          <mxGeometry width="50" height="50" relative="1" as="geometry">
            <mxPoint x="210" y="485" as="sourcePoint" />
            <mxPoint x="153" y="453" as="targetPoint" />
          </mxGeometry>
        </mxCell>
        <mxCell id="rWLaTV12xomInbaRfFif-19" value="&lt;font data-sider-select-id=&quot;ace2b0cb-16a5-4c7d-add7-e099d607efed&quot; face=&quot;Times New Roman&quot;&gt;Unduh Data&lt;/font&gt;" style="strokeWidth=2;html=1;shape=mxgraph.flowchart.start_1;whiteSpace=wrap;" vertex="1" parent="rWLaTV12xomInbaRfFif-37">
          <mxGeometry x="175" y="400" width="100" height="40" as="geometry" />
        </mxCell>
        <mxCell id="rWLaTV12xomInbaRfFif-55" value="" style="endArrow=block;html=1;rounded=0;entryX=1;entryY=0.5;entryDx=0;entryDy=0;entryPerimeter=0;endFill=0;endSize=12;exitX=0;exitY=0.5;exitDx=0;exitDy=0;exitPerimeter=0;" edge="1" parent="rWLaTV12xomInbaRfFif-37" source="rWLaTV12xomInbaRfFif-19" target="rWLaTV12xomInbaRfFif-13">
          <mxGeometry width="50" height="50" relative="1" as="geometry">
            <mxPoint x="190" y="440" as="sourcePoint" />
            <mxPoint x="153" y="417" as="targetPoint" />
          </mxGeometry>
        </mxCell>
        <mxCell id="rWLaTV12xomInbaRfFif-20" value="Hapus Data" style="strokeWidth=2;html=1;shape=mxgraph.flowchart.start_1;whiteSpace=wrap;" vertex="1" parent="rWLaTV12xomInbaRfFif-37">
          <mxGeometry x="175" y="470" width="100" height="40" as="geometry" />
        </mxCell>
        <mxCell id="rWLaTV12xomInbaRfFif-57" value="" style="endArrow=block;html=1;rounded=0;exitX=0.145;exitY=0.145;exitDx=0;exitDy=0;exitPerimeter=0;entryX=0.778;entryY=0.893;entryDx=0;entryDy=0;entryPerimeter=0;endFill=0;endSize=12;" edge="1" parent="rWLaTV12xomInbaRfFif-37" source="rWLaTV12xomInbaRfFif-20" target="rWLaTV12xomInbaRfFif-13">
          <mxGeometry width="50" height="50" relative="1" as="geometry">
            <mxPoint x="110" y="520" as="sourcePoint" />
            <mxPoint x="110" y="460" as="targetPoint" />
          </mxGeometry>
        </mxCell>
        <mxCell id="rWLaTV12xomInbaRfFif-21" value="&lt;font data-sider-select-id=&quot;be54f2a5-352d-480a-8749-579a075111d5&quot; face=&quot;Times New Roman&quot;&gt;Ubah Data&lt;/font&gt;" style="strokeWidth=2;html=1;shape=mxgraph.flowchart.start_1;whiteSpace=wrap;" vertex="1" parent="rWLaTV12xomInbaRfFif-37">
          <mxGeometry x="175" y="340" width="100" height="40" as="geometry" />
        </mxCell>
        <mxCell id="rWLaTV12xomInbaRfFif-54" value="" style="endArrow=block;html=1;rounded=0;exitX=0;exitY=0.5;exitDx=0;exitDy=0;exitPerimeter=0;entryX=0.855;entryY=0.145;entryDx=0;entryDy=0;entryPerimeter=0;endFill=0;endSize=12;" edge="1" parent="rWLaTV12xomInbaRfFif-37" source="rWLaTV12xomInbaRfFif-21" target="rWLaTV12xomInbaRfFif-13">
          <mxGeometry width="50" height="50" relative="1" as="geometry">
            <mxPoint x="210" y="245" as="sourcePoint" />
            <mxPoint x="153" y="223" as="targetPoint" />
          </mxGeometry>
        </mxCell>
        <mxCell id="rWLaTV12xomInbaRfFif-45" value="&lt;font data-sider-select-id=&quot;cd4671c0-0fde-44b0-9225-674e0c319b2e&quot; face=&quot;Times New Roman&quot;&gt;Ubah Data User&lt;/font&gt;" style="strokeWidth=2;html=1;shape=mxgraph.flowchart.start_1;whiteSpace=wrap;" vertex="1" parent="rWLaTV12xomInbaRfFif-37">
          <mxGeometry x="175" y="200" width="100" height="40" as="geometry" />
        </mxCell>
        <mxCell id="rWLaTV12xomInbaRfFif-53" value="" style="endArrow=block;html=1;rounded=0;exitX=0;exitY=0.5;exitDx=0;exitDy=0;exitPerimeter=0;entryX=0.855;entryY=0.855;entryDx=0;entryDy=0;entryPerimeter=0;endFill=0;endSize=12;" edge="1" parent="rWLaTV12xomInbaRfFif-37" source="rWLaTV12xomInbaRfFif-45" target="rWLaTV12xomInbaRfFif-42">
          <mxGeometry width="50" height="50" relative="1" as="geometry">
            <mxPoint x="430" y="120" as="sourcePoint" />
            <mxPoint x="430" y="180" as="targetPoint" />
          </mxGeometry>
        </mxCell>
        <mxCell id="rWLaTV12xomInbaRfFif-44" value="&lt;font data-sider-select-id=&quot;13d2b5fb-2d3f-41b2-859c-6e49f686d84d&quot; face=&quot;Times New Roman&quot;&gt;Hapus User&lt;/font&gt;" style="strokeWidth=2;html=1;shape=mxgraph.flowchart.start_1;whiteSpace=wrap;" vertex="1" parent="rWLaTV12xomInbaRfFif-37">
          <mxGeometry x="175" y="140" width="100" height="40" as="geometry" />
        </mxCell>
        <mxCell id="rWLaTV12xomInbaRfFif-51" value="" style="endArrow=block;html=1;rounded=0;exitX=0;exitY=0.5;exitDx=0;exitDy=0;exitPerimeter=0;entryX=0.855;entryY=0.145;entryDx=0;entryDy=0;entryPerimeter=0;endFill=0;endSize=12;" edge="1" parent="rWLaTV12xomInbaRfFif-37" source="rWLaTV12xomInbaRfFif-44" target="rWLaTV12xomInbaRfFif-42">
          <mxGeometry width="50" height="50" relative="1" as="geometry">
            <mxPoint x="237" y="160" as="sourcePoint" />
            <mxPoint x="190" y="202" as="targetPoint" />
          </mxGeometry>
        </mxCell>
        <mxCell id="rWLaTV12xomInbaRfFif-39" value="" style="endArrow=classic;html=1;rounded=0;entryX=0;entryY=0.5;entryDx=0;entryDy=0;entryPerimeter=0;exitX=1;exitY=0.3333333333333333;exitDx=0;exitDy=0;exitPerimeter=0;" edge="1" parent="1" source="rWLaTV12xomInbaRfFif-10" target="rWLaTV12xomInbaRfFif-13">
          <mxGeometry width="50" height="50" relative="1" as="geometry">
            <mxPoint x="110" y="430" as="sourcePoint" />
            <mxPoint x="243" y="442" as="targetPoint" />
          </mxGeometry>
        </mxCell>
        <mxCell id="rWLaTV12xomInbaRfFif-47" value="" style="endArrow=classic;html=1;rounded=0;exitX=1;exitY=0.3333333333333333;exitDx=0;exitDy=0;exitPerimeter=0;entryX=0;entryY=0.5;entryDx=0;entryDy=0;entryPerimeter=0;" edge="1" parent="1" source="rWLaTV12xomInbaRfFif-11" target="rWLaTV12xomInbaRfFif-42">
          <mxGeometry width="50" height="50" relative="1" as="geometry">
            <mxPoint x="130" y="260" as="sourcePoint" />
            <mxPoint x="249" y="358" as="targetPoint" />
          </mxGeometry>
        </mxCell>
      </root>
    </mxGraphModel>
  </diagram>
</mxfile>
